# xmcd
#
# Track frame offsets:
#	150
#	7837
#	36697
#	52197
#	79710
#	110535
#	127760
#	144347
#	173150
#	188242
#	222187
#	256192
#	271877
#	310700
#	327120
#
# Disc length: 4582 seconds
#
# Revision: 11
# Processed by: cddbd v1.5.2PL0 Copyright (c) Steve Scherf et al.
# Submitted via: audiograbber 1.83.01
#
DISCID=c911e40f
DTITLE=Harold Melvin and The Blue Notes - If You Don't Know Me By Know  - The Bes
DTITLE=t Of 
DYEAR=1995
DGENRE=Oldies
TTITLE0=Cabaret
TTITLE1=The Love I Lost
TTITLE2=If You Don't Know Me By Now
TTITLE3=Don't Leave Me This Way
TTITLE4=I'm Weak For You
TTITLE5=Everybody's Talkin'
TTITLE6=Hope That We Can Be Together Soon
TTITLE7=Bad Luck
TTITLE8=Where Are All My Friends
TTITLE9=Wake Up Everybody
TTITLE10=Yesterday I Had The Blues
TTITLE11=Satisfaction Guaranteed (Or Take Your Love Back)
TTITLE12=I Miss You
TTITLE13=Tell The World How I Feel About 'Cha Baby
TTITLE14=Keep On Lovin' You
EXTD=
EXTT0=
EXTT1=
EXTT2=
EXTT3=
EXTT4=
EXTT5=
EXTT6=
EXTT7=
EXTT8=
EXTT9=
EXTT10=
EXTT11=
EXTT12=
EXTT13=
EXTT14=
PLAYORDER=
